<svg width="145" height="122" viewBox="0 0 145 122" fill="none" xmlns="http://www.w3.org/2000/svg">
<path d="M85.9883 50.5748C79.032 39.2681 74.3646 26.7046 72.2511 13.598C71.6636 9.90921 71.2734 6.19162 71.0825 2.46116C71.0822 1.83648 70.8446 1.23527 70.4177 0.779289C69.9908 0.32331 69.4066 0.0466642 68.7834 0.00538548C68.1602 -0.0358932 67.5446 0.161282 67.0614 0.556973C66.5781 0.952664 66.2632 1.51728 66.1806 2.13647C64.1084 13.3437 61.533 27.2621 54.4616 38.5829C49.8908 37.7409 45.2808 37.1287 40.6487 36.7484C35.644 36.3318 31.0884 36.1532 26.7276 36.2073C26.3949 36.2037 26.0648 36.2659 25.7561 36.3903C25.4475 36.5147 25.1665 36.6988 24.9292 36.9321C24.6919 37.1654 24.5031 37.4433 24.3735 37.7498C24.2438 38.0563 24.176 38.3854 24.1739 38.7182C24.1557 39.0311 24.2003 39.3445 24.305 39.6399C24.4098 39.9353 24.5726 40.2067 24.7838 40.4382C24.9951 40.6697 25.2505 40.8565 25.5351 40.9877C25.8197 41.1189 26.1277 41.1918 26.4409 41.2021L31.0668 41.5214C37.3646 41.9489 43.8733 42.3926 50.2198 43.3288L50.9935 43.4479C49.239 45.6038 47.242 47.5503 45.042 49.249C44.8572 49.384 44.702 49.5553 44.5859 49.7526C44.4698 49.9498 44.3952 50.1686 44.3668 50.3957C44.3385 50.6228 44.3568 50.8533 44.4208 51.073C44.4848 51.2928 44.5931 51.4971 44.739 51.6734C44.8892 51.8789 45.0788 52.0525 45.2968 52.1839C45.5149 52.3153 45.7569 52.4019 46.0087 52.4387C46.2606 52.4755 46.5173 52.4617 46.7638 52.3981C47.0102 52.3345 47.2416 52.2224 47.4442 52.0684C50.4054 49.7868 53.0747 47.1497 55.3922 44.2163C60.8618 45.246 66.2327 46.7451 71.445 48.697C75.2173 50.135 78.8638 51.8835 82.347 53.9246C82.6475 54.0994 82.9802 54.2116 83.3252 54.2544C83.6702 54.2971 84.0202 54.2696 84.3543 54.1735C84.8483 54.0379 85.298 53.7747 85.6582 53.4105C86.0343 53.0499 86.273 52.5696 86.3333 52.052C86.3935 51.5345 86.2715 51.0121 85.9883 50.5748ZM75.8978 42.5496C76.3631 43.5561 76.8554 44.5735 77.3857 45.6233C71.4014 42.9434 65.1598 40.88 58.7575 39.465C62.5448 33.4583 65.5097 26.1527 67.8362 17.2075C69.4536 25.9553 72.1619 34.4655 75.8978 42.5387V42.5496Z" fill="#F7941D"/>
<path d="M119.82 49.8551C119.572 49.4493 119.184 49.148 118.73 49.0075C118.276 48.8671 117.786 48.8971 117.353 49.092C105.441 53.8719 93.0091 57.2357 80.3127 59.1141C80.0901 59.1431 79.8756 59.2166 79.682 59.3302C79.4883 59.4439 79.3196 59.5954 79.1858 59.7757C79.052 59.956 78.9559 60.1614 78.9031 60.3796C78.8504 60.5979 78.8422 60.8245 78.8789 61.0461C78.9037 61.2746 78.9737 61.4959 79.0849 61.697C79.1961 61.8982 79.3462 62.0753 79.5265 62.2178C79.7068 62.3604 79.9137 62.4656 80.135 62.5273C80.3564 62.5891 80.5878 62.6061 80.8159 62.5775C87.9821 61.7624 95.0747 60.3947 102.03 58.4864C98.7757 59.978 95.4223 61.2437 91.9939 62.2745C83.137 64.9261 72.9924 66.2465 61.8522 66.1978C57.459 66.1978 52.9954 65.8948 48.6778 65.6242C46.9357 65.5105 45.2097 65.4023 43.4513 65.3049C42.7917 65.2493 42.1368 65.4572 41.6299 65.8831C41.123 66.309 40.8053 66.9182 40.7461 67.5777C40.7067 67.894 40.7301 68.215 40.8149 68.5222C40.8997 68.8294 41.0442 69.1169 41.2402 69.3682C41.4362 69.6196 41.6798 69.8297 41.9571 69.9868C42.2344 70.1438 42.5399 70.2447 42.8562 70.2835C46.227 70.8239 49.6241 71.1852 53.0332 71.3658C55.1 71.4794 57.2913 71.5498 59.6286 71.5714C65.2852 71.6753 70.9422 71.3824 76.5579 70.6948C87.2543 69.2878 97.0093 66.3656 105.558 61.9714C110.569 59.4427 115.234 56.2779 119.436 52.5554C119.815 52.2273 120.062 51.7733 120.133 51.2771C120.203 50.7809 120.092 50.2758 119.82 49.8551Z" fill="#047BC1"/>
<path d="M27.3281 86.4369H28.4643C30.6555 86.4369 32.0514 85.2896 32.0514 83.4659C32.0514 81.6423 30.6555 80.495 28.4643 80.495H24.677V88.3688H27.3281V86.4369ZM27.3281 82.546H28.2966C29.027 82.546 29.3787 82.8923 29.3787 83.4659C29.3787 84.0396 29.0324 84.3913 28.2966 84.3913H27.3281V82.546Z" fill="#14467C"/>
<path d="M35.5736 86.3936H36.277L37.6133 88.3688H40.4484L38.7928 85.939C39.2549 85.7168 39.6419 85.3643 39.9062 84.9249C40.1706 84.4855 40.3007 83.9784 40.2807 83.4659C40.2807 81.6423 38.8848 80.495 36.6936 80.495H32.9062V88.3688H35.5628L35.5736 86.3936ZM35.5736 82.546H36.5367C37.2671 82.546 37.6188 82.8923 37.6188 83.4659C37.6188 84.0396 37.2671 84.3913 36.5367 84.3913H35.5736V82.546Z" fill="#14467C"/>
<path d="M47.8393 86.3665H43.9059V85.3329H47.2334V83.4227H43.9059V82.4973H47.6932V80.495H41.2981V88.3688H47.8393V86.3665Z" fill="#14467C"/>
<path d="M51.5183 85.8524H54.8025V83.8502H51.5183V82.4973H55.2623V80.495H48.8672V88.3688H51.5183V85.8524Z" fill="#14467C"/>
<path d="M62.6531 86.3665H58.7143V85.3329H62.0471V83.4227H58.7143V82.4973H62.507V80.495H56.1064V88.3688H62.6531V86.3665Z" fill="#14467C"/>
<path d="M66.3267 80.495H63.6755V88.3688H66.3267V80.495Z" fill="#14467C"/>
<path d="M69.3188 88.3688H71.9753V82.5568H74.2802V80.495H67.0139V82.5568H69.3188V88.3688Z" fill="#14467C"/>
<path d="M79.8473 84.7485C79.8473 85.9552 79.3874 86.4044 78.6408 86.4044C77.8942 86.4044 77.4397 85.9552 77.4397 84.7485V80.495H74.7886V84.8242C74.7886 87.1836 76.2007 88.5473 78.6192 88.5473C81.0376 88.5473 82.4552 87.1836 82.4552 84.8242V80.495H79.8473V84.7485Z" fill="#14467C"/>
<path d="M86.3238 86.3936H87.0434L88.3797 88.3688H93.893L94.434 86.9997H97.4152L97.9562 88.3688H100.661L97.2204 80.495H94.6126L91.1824 88.3525L89.5592 85.939C90.0198 85.7154 90.4053 85.3624 90.6686 84.9232C90.9319 84.4841 91.0615 83.9776 91.0417 83.4659C91.0417 81.6423 89.6458 80.495 87.4546 80.495H83.6672V88.3688H86.3184L86.3238 86.3936ZM95.9165 83.1088L96.6794 85.084H95.1536L95.9165 83.1088ZM86.3238 82.5676H87.2922C88.0227 82.5676 88.3743 82.914 88.3743 83.4876C88.3743 84.0612 88.0281 84.413 87.2922 84.413H86.3238V82.5676Z" fill="#14467C"/>
<path d="M112.808 84.4346C112.808 81.994 110.995 80.495 108.366 80.495H104.487V88.3688H108.366C110.995 88.3688 112.808 86.8752 112.808 84.4346ZM107.154 86.2907V82.5568H108.236C108.731 82.5568 109.206 82.7535 109.556 83.1036C109.906 83.4538 110.103 83.9286 110.103 84.4238C110.103 84.9189 109.906 85.3938 109.556 85.7439C109.206 86.094 108.731 86.2907 108.236 86.2907H107.154Z" fill="#14467C"/>
<path d="M120.323 86.3665H116.384V85.3329H119.712V83.4227H116.384V82.4973H120.172V80.495H113.776V88.3688H120.323V86.3665Z" fill="#14467C"/>
<path d="M21.8257 96.8432L14.2998 109.485L6.5737 96.8432H0V120.573H7.28787V110.128L12.4386 118.435H15.9608L21.1116 109.755L21.1819 120.573H28.4644L28.3994 96.8432H21.8257Z" fill="#14467C"/>
<path d="M40.1186 96.8432L29.7522 120.573H37.8679L39.4585 116.433H48.4723L50.0684 120.573H58.3518L47.98 96.8432H40.1186ZM41.6876 110.675L43.9925 104.722L46.2973 110.675H41.6876Z" fill="#14467C"/>
<path d="M71.986 102.774C74.1231 102.774 75.7733 103.792 77.1746 105.556L82.2226 101.048C79.8853 97.9959 76.2224 96.3021 71.5802 96.3021C63.9569 96.3021 58.3679 101.421 58.3679 108.705C58.3679 115.989 63.9569 121.114 71.5802 121.114C76.2224 121.114 79.8853 119.42 82.2226 116.368L77.1746 111.86C75.7842 113.624 74.1231 114.636 71.986 114.636C68.6694 114.636 66.4295 112.336 66.4295 108.684C66.4295 105.031 68.6532 102.774 71.986 102.774Z" fill="#14467C"/>
<path d="M92.3726 111.416H102.404V105.659H92.3726V102.877H103.794V96.8432H84.5112V120.573H104.232V114.539H92.3726V111.416Z" fill="#14467C"/>
<path d="M115.313 96.8432H107.316V120.567H115.313V96.8432Z" fill="#14467C"/>
<path d="M133.665 96.4427L137.496 94.7868L135.153 89.3753L125.733 93.4556L127.232 96.9189C121.822 98.4937 118.229 102.969 118.229 108.705C118.229 115.892 123.888 121.114 131.614 121.114C139.341 121.114 145 115.892 145 108.705C144.994 102.174 140.314 97.2815 133.665 96.4427ZM131.614 114.636C128.666 114.636 126.296 112.401 126.296 108.684C126.296 104.966 128.666 102.731 131.614 102.731C134.563 102.731 136.933 104.971 136.933 108.684C136.933 112.396 134.558 114.636 131.609 114.636H131.614Z" fill="#14467C"/>
</svg>
